{"asset":{"version":"2.0","generator":"Blockbench 5.2.1 glTF exporter"},"scenes":[{"nodes":[7],"name":"blockbench_export"}],"scene":0,"nodes":[{"translation":[0,0.875,0],"name":"base2"},{"translation":[0,0.6875,0],"name":"base","children":[0]},{"rotation":[0,0,-1,6.123233995736766e-17],"translation":[-0.3125,0.6875,0],"name":"left_leg"},{"rotation":[0,0,1,6.123233995736766e-17],"translation":[0.3125,0.6875,0],"name":"right_leg"},{"name":"cylinder","mesh":0,"skin":0},{"name":"cylinder","mesh":1,"skin":0},{"name":"cylinder","mesh":2,"skin":0},{"name":"armature","children":[1,2,3,4,5,6]}],"bufferViews":[{"buffer":0,"byteOffset":0,"byteLength":3168,"target":34962,"byteStride":12},{"buffer":0,"byteOffset":3168,"byteLength":3168,"target":34962,"byteStride":12},{"buffer":0,"byteOffset":6336,"byteLength":2112,"target":34962,"byteStride":8},{"buffer":0,"byteOffset":8448,"byteLength":2112,"target":34962,"byteStride":8},{"buffer":0,"byteOffset":10560,"byteLength":4224,"target":34962,"byteStride":16},{"buffer":0,"byteOffset":14784,"byteLength":720,"target":34963},{"buffer":0,"byteOffset":15504,"byteLength":1440,"target":34962,"byteStride":12},{"buffer":0,"byteOffset":16944,"byteLength":1440,"target":34962,"byteStride":12},{"buffer":0,"byteOffset":18384,"byteLength":960,"target":34962,"byteStride":8},{"buffer":0,"byteOffset":19344,"byteLength":960,"target":34962,"byteStride":8},{"buffer":0,"byteOffset":20304,"byteLength":1920,"target":34962,"byteStride":16},{"buffer":0,"byteOffset":22224,"byteLength":288,"target":34963},{"buffer":0,"byteOffset":22512,"byteLength":1440,"target":34962,"byteStride":12},{"buffer":0,"byteOffset":23952,"byteLength":1440,"target":34962,"byteStride":12},{"buffer":0,"byteOffset":25392,"byteLength":960,"target":34962,"byteStride":8},{"buffer":0,"byteOffset":26352,"byteLength":960,"target":34962,"byteStride":8},{"buffer":0,"byteOffset":27312,"byteLength":1920,"target":34962,"byteStride":16},{"buffer":0,"byteOffset":29232,"byteLength":288,"target":34963},{"buffer":0,"byteOffset":29520,"byteLength":256},{"buffer":0,"byteOffset":29776,"byteLength":12},{"buffer":0,"byteOffset":29788,"byteLength":48},{"buffer":0,"byteOffset":29836,"byteLength":12},{"buffer":0,"byteOffset":29848,"byteLength":48},{"buffer":0,"byteOffset":29896,"byteLength":12},{"buffer":0,"byteOffset":29908,"byteLength":36},{"buffer":0,"byteOffset":29944,"byteLength":12},{"buffer":0,"byteOffset":29956,"byteLength":36},{"buffer":0,"byteOffset":29992,"byteLength":12},{"buffer":0,"byteOffset":30004,"byteLength":48},{"buffer":0,"byteOffset":30052,"byteLength":12},{"buffer":0,"byteOffset":30064,"byteLength":36},{"buffer":0,"byteOffset":30100,"byteLength":12},{"buffer":0,"byteOffset":30112,"byteLength":48}],"buffers":[{"byteLength":30160,"uri":"data:application/octet-stream;base64,"}],"accessors":[{"bufferView":0,"componentType":5126,"count":264,"max":[0.5,2.4375,0.21875],"min":[-0.5,0.625,-0.21875],"type":"VEC3"},{"bufferView":1,"componentType":5126,"count":264,"max":[0.9906211495399475,1,1],"min":[-0.9906211495399475,-1,-1],"type":"VEC3"},{"bufferView":2,"componentType":5126,"count":264,"max":[0.17254605889320374,0.6041666269302368],"min":[0,0],"type":"VEC2"},{"bufferView":3,"componentType":5123,"count":264,"max":[1,0,0,0],"min":[0,0,0,0],"type":"VEC4"},{"bufferView":4,"componentType":5126,"count":264,"max":[1,0,0,0],"min":[1,0,0,0],"type":"VEC4"},{"bufferView":5,"componentType":5123,"count":360,"max":[263],"min":[0],"type":"SCALAR"},{"bufferView":6,"componentType":5126,"count":120,"max":[-0.0625,0.6875,0.25],"min":[-0.5625,0,-0.25],"type":"VEC3"},{"bufferView":7,"componentType":5126,"count":120,"max":[1,1,1],"min":[-1,-1,-1],"type":"VEC3"},{"bufferView":8,"componentType":5126,"count":120,"max":[0.17254605889320374,0.17254608869552612],"min":[0,0],"type":"VEC2"},{"bufferView":9,"componentType":5123,"count":120,"max":[2,0,0,0],"min":[2,0,0,0],"type":"VEC4"},{"bufferView":10,"componentType":5126,"count":120,"max":[1,0,0,0],"min":[1,0,0,0],"type":"VEC4"},{"bufferView":11,"componentType":5123,"count":144,"max":[119],"min":[0],"type":"SCALAR"},{"bufferView":12,"componentType":5126,"count":120,"max":[0.5625,0.6875,0.25],"min":[0.0625,0,-0.25],"type":"VEC3"},{"bufferView":13,"componentType":5126,"count":120,"max":[1,1,1],"min":[-1,-1,-1],"type":"VEC3"},{"bufferView":14,"componentType":5126,"count":120,"max":[0.17254605889320374,0.17254608869552612],"min":[0,0],"type":"VEC2"},{"bufferView":15,"componentType":5123,"count":120,"max":[3,0,0,0],"min":[3,0,0,0],"type":"VEC4"},{"bufferView":16,"componentType":5126,"count":120,"max":[1,0,0,0],"min":[1,0,0,0],"type":"VEC4"},{"bufferView":17,"componentType":5123,"count":144,"max":[119],"min":[0],"type":"SCALAR"},{"bufferView":18,"componentType":5126,"count":4,"max":[1,1.2246468525851679e-16,0,0,1.2246468525851679e-16,1,0,0,0,0,1,0,0.3125,0.6875,0,1],"min":[-1,-1.2246468525851679e-16,0,0,-1.2246468525851679e-16,-1,0,0,0,0,1,0,-0.3125,-1.5625,0,1],"type":"MAT4"},{"bufferView":19,"componentType":5126,"count":3,"max":[0.5],"min":[0],"type":"SCALAR"},{"bufferView":20,"componentType":5126,"count":3,"max":[1.7134584822254164e-17,0.4617486000061035,-0.8870108127593994,5.878609824269817e-17],"min":[-2.8273946544458744e-17,-0.2798290252685547,-0.9600498676300049,5.4313747737583216e-17],"type":"VEC4"},{"bufferView":21,"componentType":5126,"count":3,"max":[0.5],"min":[0],"type":"SCALAR"},{"bufferView":22,"componentType":5126,"count":3,"max":[2.0942694406238013e-17,0.3420201539993286,0.9396926164627075,5.753957676425016e-17],"min":[-2.466112272257009e-17,-0.40274667739868164,0.9153114557266235,5.604666134237976e-17],"type":"VEC4"},{"bufferView":23,"componentType":5126,"count":3,"max":[1],"min":[0],"type":"SCALAR"},{"bufferView":24,"componentType":5126,"count":3,"max":[0,2.125,0],"min":[0,0.6875,0],"type":"VEC3"},{"bufferView":25,"componentType":5126,"count":3,"max":[1],"min":[0],"type":"SCALAR"},{"bufferView":26,"componentType":5126,"count":3,"max":[-0.3125,2.1875,0],"min":[-0.3125,0.6875,0],"type":"VEC3"},{"bufferView":27,"componentType":5126,"count":3,"max":[1],"min":[0],"type":"SCALAR"},{"bufferView":28,"componentType":5126,"count":3,"max":[1.5848095630968816e-17,0,-0.9659258127212524,6.123234262925839e-17],"min":[0,-0.258819043636322,-1,5.914589533937914e-17],"type":"VEC4"},{"bufferView":29,"componentType":5126,"count":3,"max":[1],"min":[0],"type":"SCALAR"},{"bufferView":30,"componentType":5126,"count":3,"max":[0.3125,2.1875,0],"min":[0.3125,0.6875,0],"type":"VEC3"},{"bufferView":31,"componentType":5126,"count":3,"max":[1],"min":[0],"type":"SCALAR"},{"bufferView":32,"componentType":5126,"count":3,"max":[0,0,1,6.123234262925839e-17],"min":[-1.5848095630968816e-17,-0.258819043636322,0.9659258127212524,5.914589533937914e-17],"type":"VEC4"}],"materials":[{"pbrMetallicRoughness":{"metallicFactor":0,"roughnessFactor":1},"alphaMode":"MASK","alphaCutoff":0.05,"doubleSided":true},{"pbrMetallicRoughness":{"metallicFactor":0,"roughnessFactor":1},"alphaMode":"MASK","alphaCutoff":0.05,"doubleSided":true}],"meshes":[{"primitives":[{"mode":4,"attributes":{"POSITION":0,"NORMAL":1,"TEXCOORD_0":2,"JOINTS_0":3,"WEIGHTS_0":4},"indices":5,"material":0}]},{"primitives":[{"mode":4,"attributes":{"POSITION":6,"NORMAL":7,"TEXCOORD_0":8,"JOINTS_0":9,"WEIGHTS_0":10},"indices":11,"material":1}]},{"primitives":[{"mode":4,"attributes":{"POSITION":12,"NORMAL":13,"TEXCOORD_0":14,"JOINTS_0":15,"WEIGHTS_0":16},"indices":17,"material":1}]}],"skins":[{"inverseBindMatrices":18,"joints":[1,0,2,3],"skeleton":1}],"animations":[{"name":"walk-loop","samplers":[{"input":19,"output":20,"interpolation":"LINEAR"},{"input":21,"output":22,"interpolation":"LINEAR"}],"channels":[{"sampler":0,"target":{"node":2,"path":"rotation"}},{"sampler":1,"target":{"node":3,"path":"rotation"}}]},{"name":"jump","samplers":[{"input":23,"output":24,"interpolation":"LINEAR"},{"input":25,"output":26,"interpolation":"LINEAR"},{"input":27,"output":28,"interpolation":"LINEAR"},{"input":29,"output":30,"interpolation":"LINEAR"},{"input":31,"output":32,"interpolation":"LINEAR"}],"channels":[{"sampler":0,"target":{"node":1,"path":"translation"}},{"sampler":1,"target":{"node":2,"path":"translation"}},{"sampler":2,"target":{"node":2,"path":"rotation"}},{"sampler":3,"target":{"node":3,"path":"translation"}},{"sampler":4,"target":{"node":3,"path":"rotation"}}]}]}